<?xml version="1.0" encoding="UTF-8" standalone="no"?>
<svg
   xmlns:dc="http://purl.org/dc/elements/1.1/"
   xmlns:cc="http://creativecommons.org/ns#"
   xmlns:rdf="http://www.w3.org/1999/02/22-rdf-syntax-ns#"
   xmlns:svg="http://www.w3.org/2000/svg"
   xmlns="http://www.w3.org/2000/svg"
   xmlns:sodipodi="http://sodipodi.sourceforge.net/DTD/sodipodi-0.dtd"
   xmlns:inkscape="http://www.inkscape.org/namespaces/inkscape"
   inkscape:version="1.0 (4035a4fb49, 2020-05-01)"
   sodipodi:docname="social_icons.ai"
   viewBox="0 0 866.48975 769.21466"
   height="769.21466"
   width="866.48975"
   xml:space="preserve"
   id="svg28"
   version="1.1"><metadata
     id="metadata34"><rdf:RDF><cc:Work
         rdf:about=""><dc:format>image/svg+xml</dc:format><dc:type
           rdf:resource="http://purl.org/dc/dcmitype/StillImage" /><dc:title></dc:title></cc:Work></rdf:RDF></metadata><defs
     id="defs32"><clipPath
       id="clipPath44"
       clipPathUnits="userSpaceOnUse"><path
         id="path42"
         d="M 0,2160 H 2160 V 0 H 0 Z" /></clipPath></defs><sodipodi:namedview
     inkscape:current-layer="g46"
     inkscape:window-maximized="1"
     inkscape:window-y="25"
     inkscape:window-x="68"
     inkscape:cy="1227.2319"
     inkscape:cx="-200.76707"
     inkscape:zoom="0.26284722"
     showgrid="false"
     id="namedview30"
     inkscape:window-height="1025"
     inkscape:window-width="1852"
     inkscape:pageshadow="2"
     inkscape:pageopacity="0"
     guidetolerance="10"
     gridtolerance="10"
     objecttolerance="10"
     borderopacity="1"
     bordercolor="#666666"
     pagecolor="#ffffff" /><g
     transform="matrix(1.3333333,0,0,-1.3333333,-1640.7671,2667.2319)"
     inkscape:label="social_icons"
     inkscape:groupmode="layer"
     id="g36"><g
       id="g38"><g
         clip-path="url(#clipPath44)"
         id="g40"><g
           transform="translate(1807.4873,1671)"
           id="g46"><path
             inkscape:export-ydpi="96"
             inkscape:export-xdpi="96"
             inkscape:export-filename="/home/kokumaji/path48.png"
             id="path48"
             style="fill:#cccccc;fill-opacity:1;fill-rule:nonzero;stroke:none"
             d="M 0,0 -247.487,-247.487 -494.975,0 c -213.629,213.628 33.859,461.116 247.488,247.487 C -49.209,445.766 198.278,198.278 0,0" /></g><g
           style="display:none"
           transform="translate(856.4873,1658)"
           id="g50"><path
             id="path52"
             style="fill:#ff1d50;fill-opacity:1;fill-rule:nonzero;stroke:none"
             d="M 0,0 -247.487,-247.487 -494.975,0 c -213.629,213.628 33.859,461.116 247.488,247.487 C -49.209,445.766 198.278,198.278 0,0" /></g><g
           style="display:none"
           transform="translate(1360.7285,1183.3604)"
           id="g54"><path
             id="path56"
             style="fill:#cccccc;fill-opacity:1;fill-rule:nonzero;stroke:none"
             d="m 0,0 h 77.999 99.271 c 3.291,0 6.583,0.014 9.873,-0.054 5.278,-0.108 10.553,-0.383 15.813,-0.837 2.478,-0.214 4.948,-0.485 7.42,-0.759 5.433,-0.603 -4.563,0.702 -1.517,0.225 1.28,-0.201 2.564,-0.374 3.842,-0.577 9.577,-1.525 19.054,-3.69 28.324,-6.538 4.453,-1.367 8.855,-2.892 13.197,-4.575 0.966,-0.375 1.928,-0.763 2.891,-1.147 4.783,-1.907 -4.365,1.948 -1.66,0.709 2.124,-0.973 4.269,-1.899 6.377,-2.908 7.998,-3.829 15.723,-8.229 23.091,-13.163 1.638,-1.096 3.257,-2.219 4.858,-3.367 0.911,-0.653 1.818,-1.315 2.717,-1.985 0.448,-0.335 0.891,-0.679 1.342,-1.009 2.406,-1.761 -2.94,2.318 -2.863,2.217 2.342,-3.113 6.975,-5.668 9.915,-8.309 6.37,-5.724 12.347,-11.882 17.9,-18.402 1.339,-1.574 2.654,-3.167 3.943,-4.781 0.722,-0.904 3.078,-3.941 0.164,-0.172 -3.072,3.977 -0.067,0.06 0.618,-0.865 2.541,-3.432 4.974,-6.945 7.298,-10.528 4.587,-7.07 8.748,-14.414 12.484,-21.968 0.983,-1.988 1.937,-3.991 2.861,-6.007 1.021,-2.225 4.205,-10.181 0.596,-1.133 1.548,-3.882 3.129,-7.742 4.541,-11.677 2.931,-8.166 5.42,-16.489 7.476,-24.916 2.064,-8.461 2.763,-17.311 4.9,-25.702 0.109,-0.425 -0.914,7.225 -0.52,3.864 0.05,-0.42 0.108,-0.84 0.161,-1.26 0.138,-1.121 0.271,-2.242 0.396,-3.364 0.25,-2.246 0.472,-4.495 0.664,-6.746 0.374,-4.367 0.641,-8.742 0.8,-13.12 0.318,-8.762 0.208,-17.54 -0.332,-26.291 -0.261,-4.229 -0.622,-8.454 -1.085,-12.667 -0.124,-1.122 -0.254,-2.244 -0.392,-3.365 -0.147,-1.205 -0.672,-5.139 -0.007,-0.168 0.706,5.267 0.057,0.526 -0.109,-0.579 -0.168,-1.115 -0.344,-2.228 -0.525,-3.342 -1.41,-8.599 -3.247,-17.129 -5.524,-25.541 -2.263,-8.36 -4.96,-16.604 -8.098,-24.676 -0.746,-1.919 -1.751,-3.837 -2.346,-5.805 -0.114,-0.377 2.796,6.427 1.438,3.433 -0.171,-0.38 -0.332,-0.765 -0.5,-1.146 -0.502,-1.145 -1.012,-2.284 -1.534,-3.42 -1.79,-3.903 -3.689,-7.756 -5.7,-11.551 -3.94,-7.438 -8.307,-14.653 -13.096,-21.576 -1.175,-1.699 -2.376,-3.381 -3.602,-5.044 -0.654,-0.886 -1.333,-1.755 -1.983,-2.643 -1.344,-1.838 3.048,3.724 2.493,3.22 -0.472,-0.426 -0.876,-1.116 -1.279,-1.622 -2.659,-3.342 -5.426,-6.599 -8.296,-9.762 -5.765,-6.354 -11.953,-12.326 -18.522,-17.844 -1.602,-1.345 -3.254,-2.624 -4.869,-3.952 -1.85,-1.521 3.797,3.081 3.202,2.468 -0.354,-0.363 -0.918,-0.703 -1.338,-1.014 -1.014,-0.751 -2.023,-1.505 -3.048,-2.243 -3.549,-2.557 -7.189,-4.989 -10.911,-7.287 -7.63,-4.712 -15.589,-8.714 -23.756,-12.396 -3.168,-1.429 6.447,2.619 2.07,0.876 -0.962,-0.383 -1.92,-0.777 -2.885,-1.153 -2.225,-0.868 -4.466,-1.695 -6.721,-2.48 -4.596,-1.6 -9.253,-3.027 -13.954,-4.285 -4.53,-1.212 -9.104,-2.267 -13.705,-3.169 -2.353,-0.461 -4.713,-0.881 -7.079,-1.264 -1.117,-0.18 -2.237,-0.342 -3.355,-0.515 -5.566,-0.858 5.811,0.681 1.041,0.146 -9.651,-1.084 -19.305,-1.691 -29.019,-1.71 -10.033,-0.019 -20.066,0 -30.098,0 H 44.373 36.89 c -12.554,0 -24.58,-11.039 -24,-24 0.583,-13.003 10.546,-24 24,-24 h 89.333 c 31.802,0 63.829,-1.369 95.396,3.14 40.642,5.806 78.616,23.329 109.768,49.976 29.366,25.119 50.302,58.459 64.149,94.251 13.388,34.605 19.067,72.826 17.604,109.847 -1.541,39.006 -10.728,77.219 -27.847,112.321 -16.894,34.64 -42.635,64.525 -74.396,86.322 C 276.003,34.584 233.801,46.153 191.8,47.807 164.86,48.867 137.75,48 110.799,48 H 6.504 0 C -12.554,48 -24.58,36.961 -24,24 -23.417,10.997 -13.455,0 0,0" /></g><g
           style="display:none"
           transform="translate(1360.7285,1207.3604)"
           id="g58"><path
             id="path60"
             style="fill:none;stroke:#cccccc;stroke-width:48;stroke-linecap:round;stroke-linejoin:miter;stroke-miterlimit:10;stroke-dasharray:none;stroke-opacity:1"
             d="M 0,0 145.015,-103.037" /></g><g
           style="display:none"
           transform="translate(1505.7432,1310.3975)"
           id="g62"><path
             id="path64"
             style="fill:none;stroke:#cccccc;stroke-width:48;stroke-linecap:round;stroke-linejoin:miter;stroke-miterlimit:10;stroke-dasharray:none;stroke-opacity:1"
             d="M 0,0 -145.015,-103.037" /></g><g
           style="display:none"
           transform="translate(410,1183.8237)"
           id="g66"><path
             id="path68"
             style="fill:#00a99d;fill-opacity:1;fill-rule:nonzero;stroke:none"
             d="m 0,0 h 77.999 99.27 c 3.292,0 6.583,0.014 9.874,-0.054 5.278,-0.109 10.553,-0.383 15.813,-0.837 2.478,-0.214 4.948,-0.485 7.42,-0.76 5.432,-0.602 -4.563,0.702 -1.517,0.225 1.28,-0.2 2.563,-0.373 3.843,-0.576 9.576,-1.525 19.053,-3.69 28.324,-6.538 4.451,-1.368 8.854,-2.893 13.196,-4.575 0.966,-0.375 1.928,-0.763 2.891,-1.147 4.782,-1.907 -4.365,1.948 -1.66,0.709 2.124,-0.974 4.268,-1.899 6.377,-2.908 7.998,-3.829 15.723,-8.229 23.091,-13.163 1.637,-1.096 3.257,-2.219 4.858,-3.367 0.911,-0.654 1.817,-1.315 2.717,-1.985 0.448,-0.335 0.891,-0.679 1.342,-1.01 2.406,-1.76 -2.94,2.319 -2.864,2.218 2.344,-3.114 6.976,-5.668 9.916,-8.309 6.37,-5.724 12.347,-11.882 17.9,-18.403 1.339,-1.573 2.654,-3.166 3.943,-4.781 0.722,-0.903 3.077,-3.94 0.164,-0.171 -3.072,3.977 -0.067,0.06 0.618,-0.865 2.541,-3.432 4.974,-6.945 7.298,-10.528 4.587,-7.07 8.748,-14.414 12.484,-21.968 0.983,-1.988 1.937,-3.991 2.861,-6.007 1.021,-2.226 4.205,-10.181 0.595,-1.133 1.549,-3.882 3.13,-7.742 4.542,-11.678 2.93,-8.165 5.419,-16.488 7.476,-24.916 2.064,-8.461 2.764,-17.31 4.9,-25.701 0.109,-0.426 -0.914,7.225 -0.52,3.863 0.05,-0.42 0.108,-0.84 0.16,-1.26 0.139,-1.12 0.272,-2.242 0.397,-3.364 0.25,-2.246 0.471,-4.495 0.664,-6.746 0.374,-4.366 0.641,-8.741 0.8,-13.12 0.318,-8.761 0.208,-17.539 -0.333,-26.289 -0.26,-4.231 -0.622,-8.454 -1.085,-12.667 -0.123,-1.123 -0.253,-2.245 -0.391,-3.365 -0.148,-1.206 -0.672,-5.141 -0.007,-0.168 0.706,5.266 0.057,0.525 -0.109,-0.58 -0.168,-1.115 -0.343,-2.229 -0.526,-3.341 -1.408,-8.6 -3.246,-17.13 -5.523,-25.541 -2.263,-8.361 -4.96,-16.605 -8.099,-24.678 -0.746,-1.919 -1.75,-3.836 -2.346,-5.804 -0.114,-0.378 2.796,6.426 1.439,3.432 -0.172,-0.379 -0.332,-0.765 -0.5,-1.145 -0.502,-1.144 -1.013,-2.285 -1.534,-3.42 -1.79,-3.904 -3.69,-7.756 -5.7,-11.551 -3.941,-7.439 -8.307,-14.653 -13.096,-21.576 -1.175,-1.7 -2.376,-3.381 -3.602,-5.043 -0.654,-0.887 -1.333,-1.756 -1.983,-2.645 -1.345,-1.838 3.049,3.725 2.492,3.222 -0.472,-0.427 -0.875,-1.117 -1.278,-1.623 -2.659,-3.342 -5.425,-6.6 -8.296,-9.763 -5.766,-6.352 -11.953,-12.324 -18.523,-17.844 -1.601,-1.344 -3.254,-2.624 -4.868,-3.951 -1.849,-1.521 3.797,3.081 3.201,2.468 -0.353,-0.363 -0.917,-0.703 -1.337,-1.015 -1.013,-0.751 -2.024,-1.505 -3.047,-2.242 -3.55,-2.558 -7.19,-4.989 -10.913,-7.288 -7.629,-4.711 -15.587,-8.713 -23.755,-12.395 -3.167,-1.428 6.447,2.619 2.07,0.876 -0.962,-0.383 -1.92,-0.777 -2.886,-1.154 -2.224,-0.868 -4.465,-1.694 -6.72,-2.479 -4.596,-1.6 -9.253,-3.028 -13.954,-4.285 -4.531,-1.212 -9.103,-2.267 -13.706,-3.168 -2.352,-0.461 -4.712,-0.882 -7.079,-1.264 -1.116,-0.181 -2.236,-0.344 -3.354,-0.516 -5.566,-0.857 5.811,0.682 1.041,0.146 -9.651,-1.084 -19.305,-1.691 -29.019,-1.71 -10.033,-0.02 -20.066,0 -30.098,0 H 44.373 36.89 c -12.554,0 -24.581,-11.039 -24,-24 0.582,-13.003 10.545,-24 24,-24 h 89.332 c 31.804,0 63.829,-1.369 95.398,3.14 40.641,5.805 78.615,23.329 109.766,49.975 29.366,25.12 50.303,58.459 64.15,94.251 13.387,34.606 19.067,72.826 17.604,109.848 -1.541,39.006 -10.728,77.218 -27.848,112.321 -16.893,34.64 -42.634,64.524 -74.395,86.322 C 276.002,34.584 233.8,46.153 191.8,47.806 164.86,48.867 137.75,48 110.798,48 H 6.504 0 C -12.554,48 -24.581,36.961 -24,24 -23.417,10.997 -13.455,0 0,0" /></g><g
           style="display:none"
           transform="translate(410,1207.8237)"
           id="g70"><path
             id="path72"
             style="fill:none;stroke:#00a99d;stroke-width:48;stroke-linecap:round;stroke-linejoin:miter;stroke-miterlimit:10;stroke-dasharray:none;stroke-opacity:1"
             d="M 0,0 145.015,-103.037" /></g><g
           style="display:none"
           transform="translate(555.0146,1310.8604)"
           id="g74"><path
             id="path76"
             style="fill:none;stroke:#00a99d;stroke-width:48;stroke-linecap:round;stroke-linejoin:miter;stroke-miterlimit:10;stroke-dasharray:none;stroke-opacity:1"
             d="M 0,0 -145.015,-103.037" /></g></g></g></g></svg>
     inkscape:zoom="0.26284722"
     showgrid="false"
     id="namedview30"
     inkscape:window-height="1025"
     inkscape:window-width="1852"
     inkscape:pageshadow="2"
     inkscape:pageopacity="0"
     guidetolerance="10"
     gridtolerance="10"
     objecttolerance="10"
     borderopacity="1"
     bordercolor="#666666"
     pagecolor="#ffffff" /><g
     transform="matrix(1.3333333,0,0,-1.3333333,-1640.7671,2667.2319)"
     inkscape:label="social_icons"
     inkscape:groupmode="layer"
     id="g36"><g
       id="g38"><g
         clip-path="url(#clipPath44)"
         id="g40"><g
           transform="translate(1807.4873,1671)"
           id="g46"><path
             inkscape:export-ydpi="96"
             inkscape:export-xdpi="96"
             inkscape:export-filename="/home/kokumaji/path48.png"
             id="path48"
             style="fill:#cccccc;fill-opacity:1;fill-rule:nonzero;stroke:none"
             d="M 0,0 -247.487,-247.487 -494.975,0 c -213.629,213.628 33.859,461.116 247.488,247.487 C -49.209,445.766 198.278,198.278 0,0" /></g><g
           style="display:none"
           transform="translate(856.4873,1658)"
           id="g50"><path
             id="path52"
             style="fill:#ff1d50;fill-opacity:1;fill-rule:nonzero;stroke:none"
             d="M 0,0 -247.487,-247.487 -494.975,0 c -213.629,213.628 33.859,461.116 247.488,247.487 C -49.209,445.766 198.278,198.278 0,0" /></g><g
           style="display:none"
           transform="translate(1360.7285,1183.3604)"
           id="g54"><path
             id="path56"
             style="fill:#cccccc;fill-opacity:1;fill-rule:nonzero;stroke:none"
             d="m 0,0 h 77.999 99.271 c 3.291,0 6.583,0.014 9.873,-0.054 5.278,-0.108 10.553,-0.383 15.813,-0.837 2.478,-0.214 4.948,-0.485 7.42,-0.759 5.433,-0.603 -4.563,0.702 -1.517,0.225 1.28,-0.201 2.564,-0.374 3.842,-0.577 9.577,-1.525 19.054,-3.69 28.324,-6.538 4.453,-1.367 8.855,-2.892 13.197,-4.575 0.966,-0.375 1.928,-0.763 2.891,-1.147 4.783,-1.907 -4.365,1.948 -1.66,0.709 2.124,-0.973 4.269,-1.899 6.377,-2.908 7.998,-3.829 15.723,-8.229 23.091,-13.163 1.638,-1.096 3.257,-2.219 4.858,-3.367 0.911,-0.653 1.818,-1.315 2.717,-1.985 0.448,-0.335 0.891,-0.679 1.342,-1.009 2.406,-1.761 -2.94,2.318 -2.863,2.217 2.342,-3.113 6.975,-5.668 9.915,-8.309 6.37,-5.724 12.347,-11.882 17.9,-18.402 1.339,-1.574 2.654,-3.167 3.943,-4.781 0.722,-0.904 3.078,-3.941 0.164,-0.172 -3.072,3.977 -0.067,0.06 0.618,-0.865 2.541,-3.432 4.974,-6.945 7.298,-10.528 4.587,-7.07 8.748,-14.414 12.484,-21.968 0.983,-1.988 1.937,-3.991 2.861,-6.007 1.021,-2.225 4.205,-10.181 0.596,-1.133 1.548,-3.882 3.129,-7.742 4.541,-11.677 2.931,-8.166 5.42,-16.489 7.476,-24.916 2.064,-8.461 2.763,-17.311 4.9,-25.702 0.109,-0.425 -0.914,7.225 -0.52,3.864 0.05,-0.42 0.108,-0.84 0.161,-1.26 0.138,-1.121 0.271,-2.242 0.396,-3.364 0.25,-2.246 0.472,-4.495 0.664,-6.746 0.374,-4.367 0.641,-8.742 0.8,-13.12 0.318,-8.762 0.208,-17.54 -0.332,-26.291 -0.261,-4.229 -0.622,-8.454 -1.085,-12.667 -0.124,-1.122 -0.254,-2.244 -0.392,-3.365 -0.147,-1.205 -0.672,-5.139 -0.007,-0.168 0.706,5.267 0.057,0.526 -0.109,-0.579 -0.168,-1.115 -0.344,-2.228 -0.525,-3.342 -1.41,-8.599 -3.247,-17.129 -5.524,-25.541 -2.263,-8.36 -4.96,-16.604 -8.098,-24.676 -0.746,-1.919 -1.751,-3.837 -2.346,-5.805 -0.114,-0.377 2.796,6.427 1.438,3.433 -0.171,-0.38 -0.332,-0.765 -0.5,-1.146 -0.502,-1.145 -1.012,-2.284 -1.534,-3.42 -1.79,-3.903 -3.689,-7.756 -5.7,-11.551 -3.94,-7.438 -8.307,-14.653 -13.096,-21.576 -1.175,-1.699 -2.376,-3.381 -3.602,-5.044 -0.654,-0.886 -1.333,-1.755 -1.983,-2.643 -1.344,-1.838 3.048,3.724 2.493,3.22 -0.472,-0.426 -0.876,-1.116 -1.279,-1.622 -2.659,-3.342 -5.426,-6.599 -8.296,-9.762 -5.765,-6.354 -11.953,-12.326 -18.522,-17.844 -1.602,-1.345 -3.254,-2.624 -4.869,-3.952 -1.85,-1.521 3.797,3.081 3.202,2.468 -0.354,-0.363 -0.918,-0.703 -1.338,-1.014 -1.014,-0.751 -2.023,-1.505 -3.048,-2.243 -3.549,-2.557 -7.189,-4.989 -10.911,-7.287 -7.63,-4.712 -15.589,-8.714 -23.756,-12.396 -3.168,-1.429 6.447,2.619 2.07,0.876 -0.962,-0.383 -1.92,-0.777 -2.885,-1.153 -2.225,-0.868 -4.466,-1.695 -6.721,-2.48 -4.596,-1.6 -9.253,-3.027 -13.954,-4.285 -4.53,-1.212 -9.104,-2.267 -13.705,-3.169 -2.353,-0.461 -4.713,-0.881 -7.079,-1.264 -1.117,-0.18 -2.237,-0.342 -3.355,-0.515 -5.566,-0.858 5.811,0.681 1.041,0.146 -9.651,-1.084 -19.305,-1.691 -29.019,-1.71 -10.033,-0.019 -20.066,0 -30.098,0 H 44.373 36.89 c -12.554,0 -24.58,-11.039 -24,-24 0.583,-13.003 10.546,-24 24,-24 h 89.333 c 31.802,0 63.829,-1.369 95.396,3.14 40.642,5.806 78.616,23.329 109.768,49.976 29.366,25.119 50.302,58.459 64.149,94.251 13.388,34.605 19.067,72.826 17.604,109.847 -1.541,39.006 -10.728,77.219 -27.847,112.321 -16.894,34.64 -42.635,64.525 -74.396,86.322 C 276.003,34.584 233.801,46.153 191.8,47.807 164.86,48.867 137.75,48 110.799,48 H 6.504 0 C -12.554,48 -24.58,36.961 -24,24 -23.417,10.997 -13.455,0 0,0" /></g><g
           style="display:none"
           transform="translate(1360.7285,1207.3604)"
           id="g58"><path
             id="path60"
             style="fill:none;stroke:#cccccc;stroke-width:48;stroke-linecap:round;stroke-linejoin:miter;stroke-miterlimit:10;stroke-dasharray:none;stroke-opacity:1"
             d="M 0,0 145.015,-103.037" /></g><g
           style="display:none"
           transform="translate(1505.7432,1310.3975)"
           id="g62"><path
             id="path64"
             style="fill:none;stroke:#cccccc;stroke-width:48;stroke-linecap:round;stroke-linejoin:miter;stroke-miterlimit:10;stroke-dasharray:none;stroke-opacity:1"
             d="M 0,0 -145.015,-103.037" /></g><g
           style="display:none"
           transform="translate(410,1183.8237)"
           id="g66"><path
             id="path68"
             style="fill:#00a99d;fill-opacity:1;fill-rule:nonzero;stroke:none"
             d="m 0,0 h 77.999 99.27 c 3.292,0 6.583,0.014 9.874,-0.054 5.278,-0.109 10.553,-0.383 15.813,-0.837 2.478,-0.214 4.948,-0.485 7.42,-0.76 5.432,-0.602 -4.563,0.702 -1.517,0.225 1.28,-0.2 2.563,-0.373 3.843,-0.576 9.576,-1.525 19.053,-3.69 28.324,-6.538 4.451,-1.368 8.854,-2.893 13.196,-4.575 0.966,-0.375 1.928,-0.763 2.891,-1.147 4.782,-1.907 -4.365,1.948 -1.66,0.709 2.124,-0.974 4.268,-1.899 6.377,-2.908 7.998,-3.829 15.723,-8.229 23.091,-13.163 1.637,-1.096 3.257,-2.219 4.858,-3.367 0.911,-0.654 1.817,-1.315 2.717,-1.985 0.448,-0.335 0.891,-0.679 1.342,-1.01 2.406,-1.76 -2.94,2.319 -2.864,2.218 2.344,-3.114 6.976,-5.668 9.916,-8.309 6.37,-5.724 12.347,-11.882 17.9,-18.403 1.339,-1.573 2.654,-3.166 3.943,-4.781 0.722,-0.903 3.077,-3.94 0.164,-0.171 -3.072,3.977 -0.067,0.06 0.618,-0.865 2.541,-3.432 4.974,-6.945 7.298,-10.528 4.587,-7.07 8.748,-14.414 12.484,-21.968 0.983,-1.988 1.937,-3.991 2.861,-6.007 1.021,-2.226 4.205,-10.181 0.595,-1.133 1.549,-3.882 3.13,-7.742 4.542,-11.678 2.93,-8.165 5.419,-16.488 7.476,-24.916 2.064,-8.461 2.764,-17.31 4.9,-25.701 0.109,-0.426 -0.914,7.225 -0.52,3.863 0.05,-0.42 0.108,-0.84 0.16,-1.26 0.139,-1.12 0.272,-2.242 0.397,-3.364 0.25,-2.246 0.471,-4.495 0.664,-6.746 0.374,-4.366 0.641,-8.741 0.8,-13.12 0.318,-8.761 0.208,-17.539 -0.333,-26.289 -0.26,-4.231 -0.622,-8.454 -1.085,-12.667 -0.123,-1.123 -0.253,-2.245 -0.391,-3.365 -0.148,-1.206 -0.672,-5.141 -0.007,-0.168 0.706,5.266 0.057,0.525 -0.109,-0.58 -0.168,-1.115 -0.343,-2.229 -0.526,-3.341 -1.408,-8.6 -3.246,-17.13 -5.523,-25.541 -2.263,-8.361 -4.96,-16.605 -8.099,-24.678 -0.746,-1.919 -1.75,-3.836 -2.346,-5.804 -0.114,-0.378 2.796,6.426 1.439,3.432 -0.172,-0.379 -0.332,-0.765 -0.5,-1.145 -0.502,-1.144 -1.013,-2.285 -1.534,-3.42 -1.79,-3.904 -3.69,-7.756 -5.7,-11.551 -3.941,-7.439 -8.307,-14.653 -13.096,-21.576 -1.175,-1.7 -2.376,-3.381 -3.602,-5.043 -0.654,-0.887 -1.333,-1.756 -1.983,-2.645 -1.345,-1.838 3.049,3.725 2.492,3.222 -0.472,-0.427 -0.875,-1.117 -1.278,-1.623 -2.659,-3.342 -5.425,-6.6 -8.296,-9.763 -5.766,-6.352 -11.953,-12.324 -18.523,-17.844 -1.601,-1.344 -3.254,-2.624 -4.868,-3.951 -1.849,-1.521 3.797,3.081 3.201,2.468 -0.353,-0.363 -0.917,-0.703 -1.337,-1.015 -1.013,-0.751 -2.024,-1.505 -3.047,-2.242 -3.55,-2.558 -7.19,-4.989 -10.913,-7.288 -7.629,-4.711 -15.587,-8.713 -23.755,-12.395 -3.167,-1.428 6.447,2.619 2.07,0.876 -0.962,-0.383 -1.92,-0.777 -2.886,-1.154 -2.224,-0.868 -4.465,-1.694 -6.72,-2.479 -4.596,-1.6 -9.253,-3.028 -13.954,-4.285 -4.531,-1.212 -9.103,-2.267 -13.706,-3.168 -2.352,-0.461 -4.712,-0.882 -7.079,-1.264 -1.116,-0.181 -2.236,-0.344 -3.354,-0.516 -5.566,-0.857 5.811,0.682 1.041,0.146 -9.651,-1.084 -19.305,-1.691 -29.019,-1.71 -10.033,-0.02 -20.066,0 -30.098,0 H 44.373 36.89 c -12.554,0 -24.581,-11.039 -24,-24 0.582,-13.003 10.545,-24 24,-24 h 89.332 c 31.804,0 63.829,-1.369 95.398,3.14 40.641,5.805 78.615,23.329 109.766,49.975 29.366,25.12 50.303,58.459 64.15,94.251 13.387,34.606 19.067,72.826 17.604,109.848 -1.541,39.006 -10.728,77.218 -27.848,112.321 -16.893,34.64 -42.634,64.524 -74.395,86.322 C 276.002,34.584 233.8,46.153 191.8,47.806 164.86,48.867 137.75,48 110.798,48 H 6.504 0 C -12.554,48 -24.581,36.961 -24,24 -23.417,10.997 -13.455,0 0,0" /></g><g
           style="display:none"
           transform="translate(410,1207.8237)"
           id="g70"><path
             id="path72"
             style="fill:none;stroke:#00a99d;stroke-width:48;stroke-linecap:round;stroke-linejoin:miter;stroke-miterlimit:10;stroke-dasharray:none;stroke-opacity:1"
             d="M 0,0 145.015,-103.037" /></g><g
           style="display:none"
           transform="translate(555.0146,1310.8604)"
           id="g74"><path
             id="path76"
             style="fill:none;stroke:#00a99d;stroke-width:48;stroke-linecap:round;stroke-linejoin:miter;stroke-miterlimit:10;stroke-dasharray:none;stroke-opacity:1"
             d="M 0,0 -145.015,-103.037" /></g></g></g></g></svg>
